<svg xmlns="http://www.w3.org/2000/svg" xmlns:xlink="http://www.w3.org/1999/xlink" width="100" zoomAndPan="magnify" viewBox="0 0 1440 809.999993" height="200" preserveAspectRatio="xMidYMid meet" version="1.0"><defs><g/><clipPath id="47ce58ae40"><path d="M 444 320.40625 L 573.957031 320.40625 L 573.957031 454.65625 L 444 454.65625 Z M 444 320.40625 " clip-rule="nonzero"/></clipPath><clipPath id="bb63a8c456"><path d="M 495.914062 413.703125 L 521.414062 413.703125 L 521.414062 439.203125 L 495.914062 439.203125 Z M 495.914062 413.703125 " clip-rule="nonzero"/></clipPath></defs><rect x="-144" width="1728" fill="#ffffff" y="-80.999999" height="971.999992" fill-opacity="1"/><rect x="-144" width="1728" fill="#000000" y="-80.999999" height="971.999992" fill-opacity="1"/><g clip-path="url(#47ce58ae40)"><path fill="#ef31a6" d="M 476.546875 364.140625 L 444.261719 450.582031 C 443.476562 452.6875 445.035156 454.929688 447.28125 454.929688 L 474.738281 454.929688 C 476.105469 454.929688 477.320312 454.066406 477.777344 452.78125 L 485.445312 431.074219 L 494.722656 403.273438 C 494.941406 402.621094 494.945312 401.910156 494.730469 401.253906 L 482.625 364.265625 C 481.675781 361.371094 477.613281 361.289062 476.546875 364.140625 Z M 522.136719 320.402344 L 497.636719 320.402344 C 495.421875 320.402344 493.867188 322.589844 494.59375 324.679688 L 508.351562 364.34375 L 508.371094 364.285156 L 530.941406 431.074219 L 538.769531 452.800781 C 539.230469 454.078125 540.441406 454.929688 541.800781 454.929688 L 569.941406 454.929688 C 572.191406 454.929688 573.746094 452.6875 572.960938 450.582031 L 525.152344 322.5 C 524.679688 321.238281 523.480469 320.402344 522.136719 320.402344 " fill-opacity="1" fill-rule="nonzero"/></g><g clip-path="url(#bb63a8c456)"><path fill="#5271ff" d="M 521.320312 426.40625 C 521.320312 427.238281 521.242188 428.066406 521.078125 428.882812 C 520.914062 429.703125 520.675781 430.496094 520.355469 431.265625 C 520.035156 432.039062 519.644531 432.769531 519.179688 433.464844 C 518.71875 434.15625 518.191406 434.796875 517.601562 435.386719 C 517.011719 435.976562 516.371094 436.503906 515.675781 436.96875 C 514.984375 437.429688 514.25 437.824219 513.480469 438.140625 C 512.710938 438.460938 511.914062 438.703125 511.097656 438.863281 C 510.277344 439.027344 509.453125 439.109375 508.617188 439.109375 C 507.785156 439.109375 506.957031 439.027344 506.140625 438.863281 C 505.324219 438.703125 504.527344 438.460938 503.757812 438.140625 C 502.988281 437.824219 502.253906 437.429688 501.5625 436.96875 C 500.867188 436.503906 500.226562 435.976562 499.636719 435.386719 C 499.046875 434.796875 498.519531 434.15625 498.054688 433.464844 C 497.59375 432.769531 497.203125 432.039062 496.882812 431.265625 C 496.5625 430.496094 496.324219 429.703125 496.160156 428.882812 C 495.996094 428.066406 495.914062 427.238281 495.914062 426.40625 C 495.914062 425.570312 495.996094 424.746094 496.160156 423.925781 C 496.324219 423.109375 496.5625 422.316406 496.882812 421.542969 C 497.203125 420.773438 497.59375 420.042969 498.054688 419.347656 C 498.519531 418.65625 499.046875 418.011719 499.636719 417.421875 C 500.226562 416.832031 500.867188 416.308594 501.5625 415.84375 C 502.253906 415.378906 502.988281 414.988281 503.757812 414.667969 C 504.527344 414.351562 505.324219 414.109375 506.140625 413.945312 C 506.957031 413.785156 507.785156 413.703125 508.617188 413.703125 C 509.453125 413.703125 510.277344 413.785156 511.097656 413.945312 C 511.914062 414.109375 512.710938 414.351562 513.480469 414.667969 C 514.25 414.988281 514.984375 415.378906 515.675781 415.84375 C 516.371094 416.308594 517.011719 416.832031 517.601562 417.421875 C 518.191406 418.011719 518.71875 418.65625 519.179688 419.347656 C 519.644531 420.042969 520.035156 420.773438 520.355469 421.542969 C 520.675781 422.316406 520.914062 423.109375 521.078125 423.925781 C 521.242188 424.746094 521.320312 425.570312 521.320312 426.40625 Z M 521.320312 426.40625 " fill-opacity="1" fill-rule="nonzero"/></g><path fill="#081fed" d="M 508.617188 437.898438 C 502.277344 437.898438 497.128906 432.746094 497.128906 426.40625 C 497.128906 420.0625 502.277344 414.914062 508.617188 414.914062 C 514.960938 414.914062 520.109375 420.0625 520.109375 426.40625 C 520.109375 432.746094 514.960938 437.898438 508.617188 437.898438 Z M 508.617188 415.199219 C 502.429688 415.199219 497.410156 420.214844 497.410156 426.40625 C 497.410156 432.597656 502.445312 437.613281 508.617188 437.613281 C 514.808594 437.613281 519.828125 432.578125 519.828125 426.40625 C 519.828125 420.214844 514.808594 415.199219 508.617188 415.199219 Z M 508.617188 415.199219 " fill-opacity="1" fill-rule="nonzero"/><g fill="#ffffff" fill-opacity="1"><g transform="translate(573.79843, 451.480485)"><g><path d="M 29.640625 1.203125 C 25.316406 1.203125 21.351562 0.695312 17.75 -0.3125 C 14.144531 -1.332031 11.066406 -2.734375 8.515625 -4.515625 C 5.972656 -6.296875 4.09375 -8.332031 2.875 -10.625 L 11.71875 -20.15625 L 12.921875 -20.15625 C 15.023438 -17.320312 17.515625 -15.195312 20.390625 -13.78125 C 23.265625 -12.363281 26.382812 -11.65625 29.75 -11.65625 C 32.851562 -11.65625 35.191406 -12.210938 36.765625 -13.328125 C 38.335938 -14.441406 39.125 -16.03125 39.125 -18.09375 C 39.125 -19.695312 38.554688 -21.046875 37.421875 -22.140625 C 36.296875 -23.234375 34.46875 -24.085938 31.9375 -24.703125 L 23.546875 -26.703125 C 17.265625 -28.203125 12.675781 -30.492188 9.78125 -33.578125 C 6.894531 -36.660156 5.453125 -40.578125 5.453125 -45.328125 C 5.453125 -49.265625 6.457031 -52.6875 8.46875 -55.59375 C 10.476562 -58.507812 13.3125 -60.734375 16.96875 -62.265625 C 20.625 -63.796875 24.882812 -64.5625 29.75 -64.5625 C 35.457031 -64.5625 40.1875 -63.738281 43.9375 -62.09375 C 47.695312 -60.445312 50.628906 -58.242188 52.734375 -55.484375 L 44.234375 -46.296875 L 43.078125 -46.296875 C 41.316406 -48.285156 39.332031 -49.738281 37.125 -50.65625 C 34.925781 -51.582031 32.46875 -52.046875 29.75 -52.046875 C 23.46875 -52.046875 20.328125 -50.09375 20.328125 -46.1875 C 20.328125 -44.539062 20.910156 -43.195312 22.078125 -42.15625 C 23.253906 -41.125 25.316406 -40.285156 28.265625 -39.640625 L 36.078125 -37.90625 C 42.503906 -36.53125 47.203125 -34.316406 50.171875 -31.265625 C 53.140625 -28.222656 54.625 -24.140625 54.625 -19.015625 C 54.625 -14.992188 53.628906 -11.453125 51.640625 -8.390625 C 49.648438 -5.328125 46.773438 -2.960938 43.015625 -1.296875 C 39.265625 0.367188 34.804688 1.203125 29.640625 1.203125 Z M 29.640625 1.203125 "/></g></g></g><g fill="#ffffff" fill-opacity="1"><g transform="translate(632.216113, 451.480485)"><g><path d="M 36.9375 1.203125 C 30.8125 1.203125 25.390625 -0.0664062 20.671875 -2.609375 C 15.960938 -5.160156 12.285156 -8.90625 9.640625 -13.84375 C 7.003906 -18.78125 5.6875 -24.71875 5.6875 -31.65625 C 5.6875 -38.625 7.003906 -44.578125 9.640625 -49.515625 C 12.285156 -54.453125 15.941406 -58.191406 20.609375 -60.734375 C 25.285156 -63.285156 30.628906 -64.5625 36.640625 -64.5625 C 50.003906 -64.5625 58.566406 -59.71875 62.328125 -50.03125 L 51.40625 -42.21875 L 50.203125 -42.21875 C 48.898438 -45.207031 47.203125 -47.425781 45.109375 -48.875 C 43.023438 -50.332031 40.203125 -51.0625 36.640625 -51.0625 C 32.046875 -51.0625 28.46875 -49.472656 25.90625 -46.296875 C 23.34375 -43.117188 22.0625 -38.238281 22.0625 -31.65625 C 22.0625 -25.144531 23.363281 -20.289062 25.96875 -17.09375 C 28.570312 -13.894531 32.226562 -12.296875 36.9375 -12.296875 C 40.382812 -12.296875 43.300781 -13.222656 45.6875 -15.078125 C 48.082031 -16.929688 49.796875 -19.601562 50.828125 -23.09375 L 52.046875 -23.203125 L 63.359375 -17 C 61.753906 -11.632812 58.773438 -7.257812 54.421875 -3.875 C 50.078125 -0.488281 44.25 1.203125 36.9375 1.203125 Z M 36.9375 1.203125 "/></g></g></g><g fill="#ffffff" fill-opacity="1"><g transform="translate(697.526739, 451.480485)"><g><path d="M 62.609375 -28.09375 L 21.890625 -28.09375 C 22.347656 -22.570312 23.914062 -18.554688 26.59375 -16.046875 C 29.269531 -13.546875 32.925781 -12.296875 37.5625 -12.296875 C 41.207031 -12.296875 44.15625 -12.972656 46.40625 -14.328125 C 48.664062 -15.691406 50.488281 -17.75 51.875 -20.5 L 53.078125 -20.5 L 63.640625 -13.734375 C 61.578125 -9.285156 58.457031 -5.679688 54.28125 -2.921875 C 50.101562 -0.171875 44.53125 1.203125 37.5625 1.203125 C 31.019531 1.203125 25.363281 -0.0390625 20.59375 -2.53125 C 15.820312 -5.019531 12.144531 -8.722656 9.5625 -13.640625 C 6.976562 -18.566406 5.6875 -24.570312 5.6875 -31.65625 C 5.6875 -38.851562 7.046875 -44.921875 9.765625 -49.859375 C 12.484375 -54.796875 16.160156 -58.476562 20.796875 -60.90625 C 25.429688 -63.34375 30.640625 -64.5625 36.421875 -64.5625 C 45.378906 -64.5625 52.238281 -62.1875 57 -57.4375 C 61.769531 -52.6875 64.15625 -45.71875 64.15625 -36.53125 C 64.15625 -33.195312 64.039062 -30.613281 63.8125 -28.78125 Z M 48.9375 -38.375 C 48.78125 -43.195312 47.660156 -46.707031 45.578125 -48.90625 C 43.492188 -51.113281 40.441406 -52.21875 36.421875 -52.21875 C 28.378906 -52.21875 23.648438 -47.601562 22.234375 -38.375 Z M 48.9375 -38.375 "/></g></g></g><g fill="#ffffff" fill-opacity="1"><g transform="translate(766.398717, 451.480485)"><g><path d="M 9.140625 0 L 9.140625 -63.359375 L 24.40625 -63.359375 L 24.40625 -54.046875 L 25.625 -53.765625 C 29.5625 -60.960938 35.953125 -64.5625 44.796875 -64.5625 C 52.117188 -64.5625 57.492188 -62.566406 60.921875 -58.578125 C 64.347656 -54.597656 66.0625 -48.800781 66.0625 -41.1875 L 66.0625 0 L 50.140625 0 L 50.140625 -39.234375 C 50.140625 -43.441406 49.296875 -46.472656 47.609375 -48.328125 C 45.929688 -50.191406 43.234375 -51.125 39.515625 -51.125 C 34.960938 -51.125 31.410156 -49.648438 28.859375 -46.703125 C 26.316406 -43.753906 25.046875 -39.117188 25.046875 -32.796875 L 25.046875 0 Z M 9.140625 0 "/></g></g></g><g fill="#ffffff" fill-opacity="1"><g transform="translate(840.612739, 451.480485)"><g><path d="M 31.3125 1.203125 C 26.289062 1.203125 21.851562 -0.0078125 18 -2.4375 C 14.15625 -4.875 11.140625 -8.550781 8.953125 -13.46875 C 6.773438 -18.382812 5.6875 -24.445312 5.6875 -31.65625 C 5.6875 -38.882812 6.804688 -44.957031 9.046875 -49.875 C 11.285156 -54.800781 14.382812 -58.476562 18.34375 -60.90625 C 22.3125 -63.34375 26.898438 -64.5625 32.109375 -64.5625 C 36.054688 -64.5625 39.472656 -63.878906 42.359375 -62.515625 C 45.253906 -61.160156 47.695312 -59.046875 49.6875 -56.171875 L 50.890625 -56.46875 L 50.890625 -88.8125 L 66.8125 -88.8125 L 66.8125 0 L 50.890625 0 L 50.890625 -8.21875 L 49.6875 -8.4375 C 47.925781 -5.457031 45.515625 -3.101562 42.453125 -1.375 C 39.390625 0.34375 35.675781 1.203125 31.3125 1.203125 Z M 36.46875 -12.296875 C 40.957031 -12.296875 44.503906 -13.894531 47.109375 -17.09375 C 49.710938 -20.289062 51.015625 -25.144531 51.015625 -31.65625 C 51.015625 -38.164062 49.710938 -43.023438 47.109375 -46.234375 C 44.503906 -49.453125 40.957031 -51.0625 36.46875 -51.0625 C 31.800781 -51.0625 28.234375 -49.5 25.765625 -46.375 C 23.296875 -43.257812 22.0625 -38.351562 22.0625 -31.65625 C 22.0625 -24.988281 23.296875 -20.09375 25.765625 -16.96875 C 28.234375 -13.851562 31.800781 -12.296875 36.46875 -12.296875 Z M 36.46875 -12.296875 "/></g></g></g><g fill="#ffffff" fill-opacity="1"><g transform="translate(916.549983, 451.480485)"><g><path d="M 18.4375 0 L 1.4375 0 L 26.3125 -43.203125 L 2.640625 -83.984375 L 20.28125 -83.984375 L 37.6875 -53.875 L 39.125 -53.875 L 56.8125 -83.984375 L 73.578125 -83.984375 L 49.921875 -43.203125 L 74.796875 0 L 57.21875 0 L 38.546875 -32.390625 L 37.109375 -32.390625 Z M 18.4375 0 "/></g></g></g><g fill="#ffffff" fill-opacity="1"><g transform="translate(463.994041, 484.263888)"><g><path d="M 7.859375 -6.609375 L 0.984375 -6.609375 L 0.984375 -9.34375 L 7.859375 -9.34375 Z M 7.859375 -6.609375 "/></g></g></g><g fill="#ffffff" fill-opacity="1"><g transform="translate(472.853574, 484.263888)"><g><path d="M 15.75 0 L 12.34375 0 L 11.109375 -3.78125 L 4.8125 -3.78125 L 3.578125 0 L 0.25 0 L 5.921875 -16.421875 L 10.078125 -16.421875 Z M 7.8125 -13 L 5.6875 -6.515625 L 10.203125 -6.515625 L 8.09375 -13 Z M 7.8125 -13 "/></g></g></g><g fill="#ffffff" fill-opacity="1"><g transform="translate(488.854628, 484.263888)"><g><path d="M 7.28125 0.234375 C 6.144531 0.234375 5.128906 0.09375 4.234375 -0.1875 C 3.347656 -0.46875 2.609375 -0.835938 2.015625 -1.296875 C 1.429688 -1.753906 0.976562 -2.253906 0.65625 -2.796875 L 2.453125 -4.96875 L 2.734375 -4.96875 C 3.222656 -4.238281 3.847656 -3.65625 4.609375 -3.21875 C 5.367188 -2.789062 6.257812 -2.578125 7.28125 -2.578125 C 8.144531 -2.578125 8.796875 -2.757812 9.234375 -3.125 C 9.679688 -3.488281 9.90625 -3.992188 9.90625 -4.640625 C 9.90625 -5.023438 9.832031 -5.347656 9.6875 -5.609375 C 9.550781 -5.878906 9.316406 -6.101562 8.984375 -6.28125 C 8.648438 -6.46875 8.203125 -6.628906 7.640625 -6.765625 L 5.53125 -7.25 C 4.0625 -7.59375 2.960938 -8.15625 2.234375 -8.9375 C 1.515625 -9.71875 1.15625 -10.734375 1.15625 -11.984375 C 1.15625 -12.910156 1.382812 -13.722656 1.84375 -14.421875 C 2.3125 -15.128906 2.988281 -15.675781 3.875 -16.0625 C 4.769531 -16.457031 5.832031 -16.65625 7.0625 -16.65625 C 8.332031 -16.65625 9.414062 -16.488281 10.3125 -16.15625 C 11.21875 -15.820312 11.976562 -15.3125 12.59375 -14.625 L 11 -12.421875 L 10.71875 -12.421875 C 10.25 -12.910156 9.710938 -13.273438 9.109375 -13.515625 C 8.515625 -13.753906 7.832031 -13.875 7.0625 -13.875 C 6.175781 -13.875 5.5 -13.71875 5.03125 -13.40625 C 4.5625 -13.09375 4.328125 -12.660156 4.328125 -12.109375 C 4.328125 -11.585938 4.488281 -11.171875 4.8125 -10.859375 C 5.144531 -10.554688 5.710938 -10.320312 6.515625 -10.15625 L 8.671875 -9.703125 C 10.265625 -9.367188 11.421875 -8.796875 12.140625 -7.984375 C 12.859375 -7.179688 13.21875 -6.132812 13.21875 -4.84375 C 13.21875 -3.8125 12.992188 -2.914062 12.546875 -2.15625 C 12.109375 -1.394531 11.441406 -0.804688 10.546875 -0.390625 C 9.660156 0.0234375 8.570312 0.234375 7.28125 0.234375 Z M 7.28125 0.234375 "/></g></g></g><g fill="#ffffff" fill-opacity="1"><g transform="translate(502.958011, 484.263888)"><g><path d="M 8.96875 0.234375 C 7.457031 0.234375 6.125 -0.078125 4.96875 -0.703125 C 3.820312 -1.335938 2.921875 -2.285156 2.265625 -3.546875 C 1.617188 -4.804688 1.296875 -6.359375 1.296875 -8.203125 C 1.296875 -10.054688 1.617188 -11.613281 2.265625 -12.875 C 2.921875 -14.132812 3.820312 -15.078125 4.96875 -15.703125 C 6.125 -16.335938 7.457031 -16.65625 8.96875 -16.65625 C 10.550781 -16.65625 11.894531 -16.34375 13 -15.71875 C 14.101562 -15.101562 14.890625 -14.164062 15.359375 -12.90625 L 13 -11.453125 L 12.71875 -11.46875 C 12.363281 -12.320312 11.882812 -12.929688 11.28125 -13.296875 C 10.675781 -13.671875 9.90625 -13.859375 8.96875 -13.859375 C 7.601562 -13.859375 6.539062 -13.40625 5.78125 -12.5 C 5.019531 -11.601562 4.640625 -10.171875 4.640625 -8.203125 C 4.640625 -6.253906 5.019531 -4.828125 5.78125 -3.921875 C 6.539062 -3.023438 7.601562 -2.578125 8.96875 -2.578125 C 11.101562 -2.578125 12.410156 -3.613281 12.890625 -5.6875 L 13.171875 -5.6875 L 15.5625 -4.4375 C 15.113281 -2.875 14.347656 -1.703125 13.265625 -0.921875 C 12.179688 -0.148438 10.75 0.234375 8.96875 0.234375 Z M 8.96875 0.234375 "/></g></g></g><g fill="#ffffff" fill-opacity="1"><g transform="translate(519.060122, 484.263888)"><g><path d="M 5.375 -7.203125 L 5.375 -2.71875 L 13.21875 -2.71875 L 13.21875 0 L 2.140625 0 L 2.140625 -16.421875 L 13.03125 -16.421875 L 13.03125 -13.703125 L 5.375 -13.703125 L 5.375 -9.859375 L 12.078125 -9.859375 L 12.078125 -7.203125 Z M 5.375 -7.203125 "/></g></g></g><g fill="#ffffff" fill-opacity="1"><g transform="translate(533.174737, 484.263888)"><g><path d="M 5.28125 0 L 2.140625 0 L 2.140625 -16.421875 L 5.84375 -16.421875 L 12.4375 -5.84375 L 12.734375 -5.890625 L 12.734375 -16.421875 L 15.859375 -16.421875 L 15.859375 0 L 12.53125 0 L 5.5625 -11.296875 L 5.28125 -11.25 Z M 5.28125 0 "/></g></g></g><g fill="#ffffff" fill-opacity="1"><g transform="translate(551.174519, 484.263888)"><g><path d="M 8.046875 -16.421875 C 10.710938 -16.421875 12.742188 -15.726562 14.140625 -14.34375 C 15.546875 -12.96875 16.25 -10.921875 16.25 -8.203125 C 16.25 -5.492188 15.546875 -3.445312 14.140625 -2.0625 C 12.742188 -0.6875 10.710938 0 8.046875 0 L 2.140625 0 L 2.140625 -16.421875 Z M 7.84375 -2.734375 C 9.539062 -2.734375 10.804688 -3.164062 11.640625 -4.03125 C 12.484375 -4.894531 12.90625 -6.285156 12.90625 -8.203125 C 12.90625 -10.128906 12.484375 -11.523438 11.640625 -12.390625 C 10.804688 -13.253906 9.539062 -13.6875 7.84375 -13.6875 L 5.375 -13.6875 L 5.375 -2.734375 Z M 7.84375 -2.734375 "/></g></g></g><g fill="#ffffff" fill-opacity="1"><g transform="translate(568.725149, 484.263888)"><g><path d="M 5.375 0 L 2.140625 0 L 2.140625 -16.421875 L 5.375 -16.421875 Z M 5.375 0 "/></g></g></g><g fill="#ffffff" fill-opacity="1"><g transform="translate(576.248456, 484.263888)"><g><path d="M 5.28125 0 L 2.140625 0 L 2.140625 -16.421875 L 5.84375 -16.421875 L 12.4375 -5.84375 L 12.734375 -5.890625 L 12.734375 -16.421875 L 15.859375 -16.421875 L 15.859375 0 L 12.53125 0 L 5.5625 -11.296875 L 5.28125 -11.25 Z M 5.28125 0 "/></g></g></g><g fill="#ffffff" fill-opacity="1"><g transform="translate(594.248238, 484.263888)"><g><path d="M 7.96875 0.234375 C 6.601562 0.234375 5.421875 -0.078125 4.421875 -0.703125 C 3.421875 -1.328125 2.648438 -2.269531 2.109375 -3.53125 C 1.566406 -4.789062 1.296875 -6.347656 1.296875 -8.203125 C 1.296875 -10.078125 1.617188 -11.644531 2.265625 -12.90625 C 2.921875 -14.164062 3.828125 -15.101562 4.984375 -15.71875 C 6.140625 -16.34375 7.476562 -16.65625 9 -16.65625 C 10.570312 -16.65625 11.910156 -16.363281 13.015625 -15.78125 C 14.128906 -15.195312 14.910156 -14.328125 15.359375 -13.171875 L 13 -11.734375 L 12.71875 -11.75 C 12.375 -12.476562 11.894531 -13.007812 11.28125 -13.34375 C 10.675781 -13.6875 9.914062 -13.859375 9 -13.859375 C 7.59375 -13.859375 6.515625 -13.410156 5.765625 -12.515625 C 5.015625 -11.617188 4.640625 -10.179688 4.640625 -8.203125 C 4.640625 -6.222656 4.988281 -4.78125 5.6875 -3.875 C 6.382812 -2.976562 7.421875 -2.53125 8.796875 -2.53125 C 9.972656 -2.53125 10.84375 -2.796875 11.40625 -3.328125 C 11.96875 -3.867188 12.25 -4.664062 12.25 -5.71875 L 12.25 -6.421875 L 8.359375 -6.421875 L 8.359375 -9.0625 L 15.46875 -9.0625 L 15.46875 0 L 12.375 0 L 12.375 -2.203125 L 12.140625 -2.234375 C 11.804688 -1.453125 11.296875 -0.84375 10.609375 -0.40625 C 9.921875 0.0195312 9.039062 0.234375 7.96875 0.234375 Z M 7.96875 0.234375 "/></g></g></g><g fill="#ffffff" fill-opacity="1"><g transform="translate(611.372168, 484.263888)"><g/></g></g><g fill="#ffffff" fill-opacity="1"><g transform="translate(616.795685, 484.263888)"><g><path d="M 5.375 0 L 2.140625 0 L 2.140625 -16.421875 L 5.375 -16.421875 Z M 5.375 0 "/></g></g></g><g fill="#ffffff" fill-opacity="1"><g transform="translate(624.318991, 484.263888)"><g><path d="M 5.28125 0 L 2.140625 0 L 2.140625 -16.421875 L 5.84375 -16.421875 L 12.4375 -5.84375 L 12.734375 -5.890625 L 12.734375 -16.421875 L 15.859375 -16.421875 L 15.859375 0 L 12.53125 0 L 5.5625 -11.296875 L 5.28125 -11.25 Z M 5.28125 0 "/></g></g></g><g fill="#ffffff" fill-opacity="1"><g transform="translate(642.318774, 484.263888)"><g><path d="M 5.28125 0 L 2.140625 0 L 2.140625 -16.421875 L 5.84375 -16.421875 L 12.4375 -5.84375 L 12.734375 -5.890625 L 12.734375 -16.421875 L 15.859375 -16.421875 L 15.859375 0 L 12.53125 0 L 5.5625 -11.296875 L 5.28125 -11.25 Z M 5.28125 0 "/></g></g></g><g fill="#ffffff" fill-opacity="1"><g transform="translate(660.318556, 484.263888)"><g><path d="M 8.953125 0.234375 C 7.441406 0.234375 6.113281 -0.0703125 4.96875 -0.6875 C 3.820312 -1.300781 2.921875 -2.238281 2.265625 -3.5 C 1.617188 -4.757812 1.296875 -6.328125 1.296875 -8.203125 C 1.296875 -10.085938 1.617188 -11.660156 2.265625 -12.921875 C 2.921875 -14.179688 3.820312 -15.117188 4.96875 -15.734375 C 6.113281 -16.347656 7.441406 -16.65625 8.953125 -16.65625 C 10.453125 -16.65625 11.773438 -16.347656 12.921875 -15.734375 C 14.066406 -15.128906 14.960938 -14.191406 15.609375 -12.921875 C 16.265625 -11.660156 16.59375 -10.085938 16.59375 -8.203125 C 16.59375 -6.328125 16.265625 -4.753906 15.609375 -3.484375 C 14.960938 -2.222656 14.066406 -1.285156 12.921875 -0.671875 C 11.773438 -0.0664062 10.453125 0.234375 8.953125 0.234375 Z M 8.953125 -2.578125 C 10.347656 -2.578125 11.410156 -3.023438 12.140625 -3.921875 C 12.867188 -4.816406 13.234375 -6.242188 13.234375 -8.203125 C 13.234375 -10.171875 12.867188 -11.601562 12.140625 -12.5 C 11.410156 -13.394531 10.347656 -13.84375 8.953125 -13.84375 C 7.546875 -13.84375 6.472656 -13.394531 5.734375 -12.5 C 5.003906 -11.601562 4.640625 -10.171875 4.640625 -8.203125 C 4.640625 -6.242188 5.003906 -4.816406 5.734375 -3.921875 C 6.472656 -3.023438 7.546875 -2.578125 8.953125 -2.578125 Z M 8.953125 -2.578125 "/></g></g></g><g fill="#ffffff" fill-opacity="1"><g transform="translate(678.206055, 484.263888)"><g><path d="M 9.765625 0 L 5.84375 0 L 0.296875 -16.421875 L 3.734375 -16.421875 L 7.734375 -4.171875 L 8 -4.171875 L 11.9375 -16.421875 L 15.296875 -16.421875 Z M 9.765625 0 "/></g></g></g><g fill="#ffffff" fill-opacity="1"><g transform="translate(693.791631, 484.263888)"><g><path d="M 15.75 0 L 12.34375 0 L 11.109375 -3.78125 L 4.8125 -3.78125 L 3.578125 0 L 0.25 0 L 5.921875 -16.421875 L 10.078125 -16.421875 Z M 7.8125 -13 L 5.6875 -6.515625 L 10.203125 -6.515625 L 8.09375 -13 Z M 7.8125 -13 "/></g></g></g><g fill="#ffffff" fill-opacity="1"><g transform="translate(709.79269, 484.263888)"><g><path d="M 13.15625 -16.421875 L 13.15625 -13.6875 L 8.421875 -13.6875 L 8.421875 0 L 5.1875 0 L 5.1875 -13.6875 L 0.453125 -13.6875 L 0.453125 -16.421875 Z M 13.15625 -16.421875 "/></g></g></g><g fill="#ffffff" fill-opacity="1"><g transform="translate(723.401995, 484.263888)"><g><path d="M 5.375 0 L 2.140625 0 L 2.140625 -16.421875 L 5.375 -16.421875 Z M 5.375 0 "/></g></g></g><g fill="#ffffff" fill-opacity="1"><g transform="translate(730.925302, 484.263888)"><g><path d="M 8.953125 0.234375 C 7.441406 0.234375 6.113281 -0.0703125 4.96875 -0.6875 C 3.820312 -1.300781 2.921875 -2.238281 2.265625 -3.5 C 1.617188 -4.757812 1.296875 -6.328125 1.296875 -8.203125 C 1.296875 -10.085938 1.617188 -11.660156 2.265625 -12.921875 C 2.921875 -14.179688 3.820312 -15.117188 4.96875 -15.734375 C 6.113281 -16.347656 7.441406 -16.65625 8.953125 -16.65625 C 10.453125 -16.65625 11.773438 -16.347656 12.921875 -15.734375 C 14.066406 -15.128906 14.960938 -14.191406 15.609375 -12.921875 C 16.265625 -11.660156 16.59375 -10.085938 16.59375 -8.203125 C 16.59375 -6.328125 16.265625 -4.753906 15.609375 -3.484375 C 14.960938 -2.222656 14.066406 -1.285156 12.921875 -0.671875 C 11.773438 -0.0664062 10.453125 0.234375 8.953125 0.234375 Z M 8.953125 -2.578125 C 10.347656 -2.578125 11.410156 -3.023438 12.140625 -3.921875 C 12.867188 -4.816406 13.234375 -6.242188 13.234375 -8.203125 C 13.234375 -10.171875 12.867188 -11.601562 12.140625 -12.5 C 11.410156 -13.394531 10.347656 -13.84375 8.953125 -13.84375 C 7.546875 -13.84375 6.472656 -13.394531 5.734375 -12.5 C 5.003906 -11.601562 4.640625 -10.171875 4.640625 -8.203125 C 4.640625 -6.242188 5.003906 -4.816406 5.734375 -3.921875 C 6.472656 -3.023438 7.546875 -2.578125 8.953125 -2.578125 Z M 8.953125 -2.578125 "/></g></g></g><g fill="#ffffff" fill-opacity="1"><g transform="translate(748.812801, 484.263888)"><g><path d="M 5.28125 0 L 2.140625 0 L 2.140625 -16.421875 L 5.84375 -16.421875 L 12.4375 -5.84375 L 12.734375 -5.890625 L 12.734375 -16.421875 L 15.859375 -16.421875 L 15.859375 0 L 12.53125 0 L 5.5625 -11.296875 L 5.28125 -11.25 Z M 5.28125 0 "/></g></g></g><g fill="#ffffff" fill-opacity="1"><g transform="translate(766.812583, 484.263888)"><g/></g></g><g fill="#ffffff" fill-opacity="1"><g transform="translate(772.2361, 484.263888)"><g><path d="M 13.15625 -16.421875 L 13.15625 -13.6875 L 8.421875 -13.6875 L 8.421875 0 L 5.1875 0 L 5.1875 -13.6875 L 0.453125 -13.6875 L 0.453125 -16.421875 Z M 13.15625 -16.421875 "/></g></g></g><g fill="#ffffff" fill-opacity="1"><g transform="translate(785.845406, 484.263888)"><g><path d="M 8.953125 0.234375 C 7.441406 0.234375 6.113281 -0.0703125 4.96875 -0.6875 C 3.820312 -1.300781 2.921875 -2.238281 2.265625 -3.5 C 1.617188 -4.757812 1.296875 -6.328125 1.296875 -8.203125 C 1.296875 -10.085938 1.617188 -11.660156 2.265625 -12.921875 C 2.921875 -14.179688 3.820312 -15.117188 4.96875 -15.734375 C 6.113281 -16.347656 7.441406 -16.65625 8.953125 -16.65625 C 10.453125 -16.65625 11.773438 -16.347656 12.921875 -15.734375 C 14.066406 -15.128906 14.960938 -14.191406 15.609375 -12.921875 C 16.265625 -11.660156 16.59375 -10.085938 16.59375 -8.203125 C 16.59375 -6.328125 16.265625 -4.753906 15.609375 -3.484375 C 14.960938 -2.222656 14.066406 -1.285156 12.921875 -0.671875 C 11.773438 -0.0664062 10.453125 0.234375 8.953125 0.234375 Z M 8.953125 -2.578125 C 10.347656 -2.578125 11.410156 -3.023438 12.140625 -3.921875 C 12.867188 -4.816406 13.234375 -6.242188 13.234375 -8.203125 C 13.234375 -10.171875 12.867188 -11.601562 12.140625 -12.5 C 11.410156 -13.394531 10.347656 -13.84375 8.953125 -13.84375 C 7.546875 -13.84375 6.472656 -13.394531 5.734375 -12.5 C 5.003906 -11.601562 4.640625 -10.171875 4.640625 -8.203125 C 4.640625 -6.242188 5.003906 -4.816406 5.734375 -3.921875 C 6.472656 -3.023438 7.546875 -2.578125 8.953125 -2.578125 Z M 8.953125 -2.578125 "/></g></g></g><g fill="#ffffff" fill-opacity="1"><g transform="translate(803.732905, 484.263888)"><g/></g></g><g fill="#ffffff" fill-opacity="1"><g transform="translate(809.156422, 484.263888)"><g><path d="M 5.28125 0 L 2.140625 0 L 2.140625 -16.421875 L 5.84375 -16.421875 L 12.4375 -5.84375 L 12.734375 -5.890625 L 12.734375 -16.421875 L 15.859375 -16.421875 L 15.859375 0 L 12.53125 0 L 5.5625 -11.296875 L 5.28125 -11.25 Z M 5.28125 0 "/></g></g></g><g fill="#ffffff" fill-opacity="1"><g transform="translate(827.156204, 484.263888)"><g><path d="M 5.375 -7.203125 L 5.375 -2.71875 L 13.21875 -2.71875 L 13.21875 0 L 2.140625 0 L 2.140625 -16.421875 L 13.03125 -16.421875 L 13.03125 -13.703125 L 5.375 -13.703125 L 5.375 -9.859375 L 12.078125 -9.859375 L 12.078125 -7.203125 Z M 5.375 -7.203125 "/></g></g></g><g fill="#ffffff" fill-opacity="1"><g transform="translate(841.270824, 484.263888)"><g><path d="M 7.84375 0 L 4.21875 0 L 0.453125 -16.421875 L 3.6875 -16.421875 L 6.171875 -4.875 L 6.453125 -4.875 L 9.390625 -16.421875 L 12.15625 -16.421875 L 15.15625 -4.875 L 15.4375 -4.875 L 17.9375 -16.421875 L 21.0625 -16.421875 L 17.3125 0 L 13.671875 0 L 10.796875 -10.59375 L 10.5625 -10.59375 Z M 7.84375 0 "/></g></g></g><g fill="#ffffff" fill-opacity="1"><g transform="translate(862.762758, 484.263888)"><g/></g></g><g fill="#ffffff" fill-opacity="1"><g transform="translate(868.186275, 484.263888)"><g><path d="M 12.734375 -10.25 L 12.734375 -16.421875 L 15.96875 -16.421875 L 15.96875 0 L 12.734375 0 L 12.734375 -7.484375 L 5.375 -7.484375 L 5.375 0 L 2.140625 0 L 2.140625 -16.421875 L 5.375 -16.421875 L 5.375 -10.25 Z M 12.734375 -10.25 "/></g></g></g><g fill="#ffffff" fill-opacity="1"><g transform="translate(886.29834, 484.263888)"><g><path d="M 5.375 -7.203125 L 5.375 -2.71875 L 13.21875 -2.71875 L 13.21875 0 L 2.140625 0 L 2.140625 -16.421875 L 13.03125 -16.421875 L 13.03125 -13.703125 L 5.375 -13.703125 L 5.375 -9.859375 L 12.078125 -9.859375 L 12.078125 -7.203125 Z M 5.375 -7.203125 "/></g></g></g><g fill="#ffffff" fill-opacity="1"><g transform="translate(900.41296, 484.263888)"><g><path d="M 5.375 0 L 2.140625 0 L 2.140625 -16.421875 L 5.375 -16.421875 Z M 5.375 0 "/></g></g></g><g fill="#ffffff" fill-opacity="1"><g transform="translate(907.936246, 484.263888)"><g><path d="M 7.96875 0.234375 C 6.601562 0.234375 5.421875 -0.078125 4.421875 -0.703125 C 3.421875 -1.328125 2.648438 -2.269531 2.109375 -3.53125 C 1.566406 -4.789062 1.296875 -6.347656 1.296875 -8.203125 C 1.296875 -10.078125 1.617188 -11.644531 2.265625 -12.90625 C 2.921875 -14.164062 3.828125 -15.101562 4.984375 -15.71875 C 6.140625 -16.34375 7.476562 -16.65625 9 -16.65625 C 10.570312 -16.65625 11.910156 -16.363281 13.015625 -15.78125 C 14.128906 -15.195312 14.910156 -14.328125 15.359375 -13.171875 L 13 -11.734375 L 12.71875 -11.75 C 12.375 -12.476562 11.894531 -13.007812 11.28125 -13.34375 C 10.675781 -13.6875 9.914062 -13.859375 9 -13.859375 C 7.59375 -13.859375 6.515625 -13.410156 5.765625 -12.515625 C 5.015625 -11.617188 4.640625 -10.179688 4.640625 -8.203125 C 4.640625 -6.222656 4.988281 -4.78125 5.6875 -3.875 C 6.382812 -2.976562 7.421875 -2.53125 8.796875 -2.53125 C 9.972656 -2.53125 10.84375 -2.796875 11.40625 -3.328125 C 11.96875 -3.867188 12.25 -4.664062 12.25 -5.71875 L 12.25 -6.421875 L 8.359375 -6.421875 L 8.359375 -9.0625 L 15.46875 -9.0625 L 15.46875 0 L 12.375 0 L 12.375 -2.203125 L 12.140625 -2.234375 C 11.804688 -1.453125 11.296875 -0.84375 10.609375 -0.40625 C 9.921875 0.0195312 9.039062 0.234375 7.96875 0.234375 Z M 7.96875 0.234375 "/></g></g></g><g fill="#ffffff" fill-opacity="1"><g transform="translate(925.060196, 484.263888)"><g><path d="M 12.734375 -10.25 L 12.734375 -16.421875 L 15.96875 -16.421875 L 15.96875 0 L 12.734375 0 L 12.734375 -7.484375 L 5.375 -7.484375 L 5.375 0 L 2.140625 0 L 2.140625 -16.421875 L 5.375 -16.421875 L 5.375 -10.25 Z M 12.734375 -10.25 "/></g></g></g><g fill="#ffffff" fill-opacity="1"><g transform="translate(943.172262, 484.263888)"><g><path d="M 13.15625 -16.421875 L 13.15625 -13.6875 L 8.421875 -13.6875 L 8.421875 0 L 5.1875 0 L 5.1875 -13.6875 L 0.453125 -13.6875 L 0.453125 -16.421875 Z M 13.15625 -16.421875 "/></g></g></g><g fill="#ffffff" fill-opacity="1"><g transform="translate(956.781587, 484.263888)"><g><path d="M 7.28125 0.234375 C 6.144531 0.234375 5.128906 0.09375 4.234375 -0.1875 C 3.347656 -0.46875 2.609375 -0.835938 2.015625 -1.296875 C 1.429688 -1.753906 0.976562 -2.253906 0.65625 -2.796875 L 2.453125 -4.96875 L 2.734375 -4.96875 C 3.222656 -4.238281 3.847656 -3.65625 4.609375 -3.21875 C 5.367188 -2.789062 6.257812 -2.578125 7.28125 -2.578125 C 8.144531 -2.578125 8.796875 -2.757812 9.234375 -3.125 C 9.679688 -3.488281 9.90625 -3.992188 9.90625 -4.640625 C 9.90625 -5.023438 9.832031 -5.347656 9.6875 -5.609375 C 9.550781 -5.878906 9.316406 -6.101562 8.984375 -6.28125 C 8.648438 -6.46875 8.203125 -6.628906 7.640625 -6.765625 L 5.53125 -7.25 C 4.0625 -7.59375 2.960938 -8.15625 2.234375 -8.9375 C 1.515625 -9.71875 1.15625 -10.734375 1.15625 -11.984375 C 1.15625 -12.910156 1.382812 -13.722656 1.84375 -14.421875 C 2.3125 -15.128906 2.988281 -15.675781 3.875 -16.0625 C 4.769531 -16.457031 5.832031 -16.65625 7.0625 -16.65625 C 8.332031 -16.65625 9.414062 -16.488281 10.3125 -16.15625 C 11.21875 -15.820312 11.976562 -15.3125 12.59375 -14.625 L 11 -12.421875 L 10.71875 -12.421875 C 10.25 -12.910156 9.710938 -13.273438 9.109375 -13.515625 C 8.515625 -13.753906 7.832031 -13.875 7.0625 -13.875 C 6.175781 -13.875 5.5 -13.71875 5.03125 -13.40625 C 4.5625 -13.09375 4.328125 -12.660156 4.328125 -12.109375 C 4.328125 -11.585938 4.488281 -11.171875 4.8125 -10.859375 C 5.144531 -10.554688 5.710938 -10.320312 6.515625 -10.15625 L 8.671875 -9.703125 C 10.265625 -9.367188 11.421875 -8.796875 12.140625 -7.984375 C 12.859375 -7.179688 13.21875 -6.132812 13.21875 -4.84375 C 13.21875 -3.8125 12.992188 -2.914062 12.546875 -2.15625 C 12.109375 -1.394531 11.441406 -0.804688 10.546875 -0.390625 C 9.660156 0.0234375 8.570312 0.234375 7.28125 0.234375 Z M 7.28125 0.234375 "/></g></g></g><g fill="#ffffff" fill-opacity="1"><g transform="translate(970.88495, 484.263888)"><g><path d="M 7.859375 -6.609375 L 0.984375 -6.609375 L 0.984375 -9.34375 L 7.859375 -9.34375 Z M 7.859375 -6.609375 "/></g></g></g></svg>